<svg xmlns="http://www.w3.org/2000/svg" xmlns:xlink="http://www.w3.org/1999/xlink" width="1100" zoomAndPan="magnify" viewBox="0 0 824.88 112.499997" height="150" preserveAspectRatio="xMidYMid meet" version="1.0"><defs><g/></defs><g fill="#ffffff" fill-opacity="1"><g transform="translate(20.252821, 79.894906)"><g><path d="M 10.859375 -6.578125 L 26.953125 -6.578125 L 26.1875 0 L 2.140625 0 L 7.59375 -44.234375 L 15.515625 -44.234375 Z M 10.859375 -6.578125 "/></g></g></g><g fill="#ffffff" fill-opacity="1"><g transform="translate(52.006304, 79.894906)"><g><path d="M 33.375 -44.234375 L 32.578125 -37.90625 L 14.78125 -37.90625 L 13.25 -25.328125 L 27.234375 -25.328125 L 26.46875 -19.25 L 12.484375 -19.25 L 10.890625 -6.328125 L 28.765625 -6.328125 L 27.96875 0 L 2.140625 0 L 7.59375 -44.234375 Z M 33.375 -44.234375 "/></g></g></g><g fill="#ffffff" fill-opacity="1"><g transform="translate(86.788248, 79.894906)"><g><path d="M 37.84375 0 L 31.6875 0 C 31 0 30.453125 -0.160156 30.046875 -0.484375 C 29.640625 -0.816406 29.382812 -1.257812 29.28125 -1.8125 L 27.4375 -11.046875 L 10.953125 -11.046875 L 6.859375 -1.8125 C 6.628906 -1.332031 6.257812 -0.910156 5.75 -0.546875 C 5.238281 -0.179688 4.664062 0 4.03125 0 L -2.203125 0 L 19.1875 -44.234375 L 27.296875 -44.234375 Z M 13.4375 -16.640625 L 26.3125 -16.640625 L 23.3125 -31.78125 C 23.144531 -32.519531 22.976562 -33.296875 22.8125 -34.109375 C 22.65625 -34.921875 22.503906 -35.835938 22.359375 -36.859375 C 21.972656 -35.835938 21.59375 -34.894531 21.21875 -34.03125 C 20.84375 -33.164062 20.488281 -32.40625 20.15625 -31.75 Z M 13.4375 -16.640625 "/></g></g></g><g fill="#ffffff" fill-opacity="1"><g transform="translate(128.667193, 79.894906)"><g><path d="M 12.390625 -17.4375 L 10.25 0 L 2.359375 0 L 7.765625 -44.234375 L 20.34375 -44.234375 C 22.894531 -44.234375 25.078125 -43.960938 26.890625 -43.421875 C 28.703125 -42.878906 30.191406 -42.125 31.359375 -41.15625 C 32.523438 -40.1875 33.378906 -39.03125 33.921875 -37.6875 C 34.472656 -36.34375 34.75 -34.863281 34.75 -33.25 C 34.75 -31.539062 34.507812 -29.9375 34.03125 -28.4375 C 33.550781 -26.9375 32.863281 -25.570312 31.96875 -24.34375 C 31.070312 -23.125 29.96875 -22.054688 28.65625 -21.140625 C 27.351562 -20.222656 25.878906 -19.507812 24.234375 -19 C 24.703125 -18.71875 25.128906 -18.367188 25.515625 -17.953125 C 25.898438 -17.546875 26.238281 -17.054688 26.53125 -16.484375 L 34.421875 0 L 27.296875 0 C 26.617188 0 26.050781 -0.132812 25.59375 -0.40625 C 25.132812 -0.6875 24.789062 -1.082031 24.5625 -1.59375 L 18.078125 -15.9375 C 17.835938 -16.46875 17.535156 -16.847656 17.171875 -17.078125 C 16.816406 -17.316406 16.265625 -17.4375 15.515625 -17.4375 Z M 14.953125 -38.125 L 13.09375 -23.09375 L 17.6875 -23.09375 C 19.269531 -23.09375 20.640625 -23.320312 21.796875 -23.78125 C 22.953125 -24.238281 23.898438 -24.867188 24.640625 -25.671875 C 25.390625 -26.484375 25.945312 -27.429688 26.3125 -28.515625 C 26.675781 -29.597656 26.859375 -30.757812 26.859375 -32 C 26.859375 -33.914062 26.265625 -35.414062 25.078125 -36.5 C 23.898438 -37.582031 22.078125 -38.125 19.609375 -38.125 Z M 14.953125 -38.125 "/></g></g></g><g fill="#ffffff" fill-opacity="1"><g transform="translate(168.282446, 79.894906)"><g><path d="M 11.75 -44.234375 C 12.09375 -44.234375 12.378906 -44.21875 12.609375 -44.1875 C 12.847656 -44.15625 13.054688 -44.09375 13.234375 -44 C 13.421875 -43.914062 13.585938 -43.789062 13.734375 -43.625 C 13.878906 -43.457031 14.035156 -43.234375 14.203125 -42.953125 L 31.421875 -12.75 C 31.460938 -13.34375 31.507812 -13.921875 31.5625 -14.484375 C 31.613281 -15.046875 31.664062 -15.570312 31.71875 -16.0625 L 35.1875 -44.234375 L 42.1875 -44.234375 L 36.71875 0 L 32.640625 0 C 32.023438 0 31.503906 -0.09375 31.078125 -0.28125 C 30.648438 -0.476562 30.296875 -0.84375 30.015625 -1.375 L 12.875 -31.578125 C 12.832031 -31.085938 12.789062 -30.613281 12.75 -30.15625 C 12.71875 -29.695312 12.679688 -29.257812 12.640625 -28.84375 L 9.140625 0 L 2.140625 0 L 7.59375 -44.234375 Z M 11.75 -44.234375 "/></g></g></g><g fill="#ffffff" fill-opacity="1"><g transform="translate(213.495749, 79.894906)"><g/></g></g><g fill="#ffffff" fill-opacity="1"><g transform="translate(227.934991, 79.894906)"><g><path d="M 3.921875 -44.234375 L 10.15625 -44.234375 C 10.851562 -44.234375 11.410156 -44.066406 11.828125 -43.734375 C 12.242188 -43.398438 12.492188 -42.96875 12.578125 -42.4375 L 16.453125 -15.296875 C 16.554688 -14.640625 16.625 -13.929688 16.65625 -13.171875 C 16.6875 -12.421875 16.722656 -11.628906 16.765625 -10.796875 C 17.296875 -12.472656 17.835938 -13.972656 18.390625 -15.296875 L 29.40625 -42.4375 C 29.582031 -42.882812 29.929688 -43.296875 30.453125 -43.671875 C 30.972656 -44.046875 31.5625 -44.234375 32.21875 -44.234375 L 34.046875 -44.234375 C 34.742188 -44.234375 35.304688 -44.066406 35.734375 -43.734375 C 36.160156 -43.398438 36.425781 -42.96875 36.53125 -42.4375 L 40.9375 -15.296875 C 41.039062 -14.640625 41.132812 -13.941406 41.21875 -13.203125 C 41.3125 -12.472656 41.378906 -11.710938 41.421875 -10.921875 C 41.648438 -11.710938 41.875 -12.476562 42.09375 -13.21875 C 42.320312 -13.96875 42.554688 -14.660156 42.796875 -15.296875 L 53.296875 -42.4375 C 53.472656 -42.90625 53.832031 -43.320312 54.375 -43.6875 C 54.914062 -44.050781 55.515625 -44.234375 56.171875 -44.234375 L 62.4375 -44.234375 L 44.359375 0 L 37.171875 0 L 32.1875 -30.65625 C 32.125 -31.039062 32.054688 -31.460938 31.984375 -31.921875 C 31.910156 -32.378906 31.851562 -32.863281 31.8125 -33.375 C 31.65625 -32.863281 31.488281 -32.378906 31.3125 -31.921875 C 31.132812 -31.460938 30.96875 -31.039062 30.8125 -30.65625 L 18.296875 0 L 11.140625 0 Z M 3.921875 -44.234375 "/></g></g></g><g fill="#ffffff" fill-opacity="1"><g transform="translate(289.697786, 79.894906)"><g><path d="M 36.71875 0 L 28.734375 0 L 31.109375 -19.421875 L 12.515625 -19.421875 L 10.125 0 L 2.140625 0 L 7.59375 -44.234375 L 15.578125 -44.234375 L 13.1875 -25.0625 L 31.8125 -25.0625 L 34.203125 -44.234375 L 42.1875 -44.234375 Z M 36.71875 0 "/></g></g></g><g fill="#ffffff" fill-opacity="1"><g transform="translate(334.911088, 79.894906)"><g><path d="M 37.84375 0 L 31.6875 0 C 31 0 30.453125 -0.160156 30.046875 -0.484375 C 29.640625 -0.816406 29.382812 -1.257812 29.28125 -1.8125 L 27.4375 -11.046875 L 10.953125 -11.046875 L 6.859375 -1.8125 C 6.628906 -1.332031 6.257812 -0.910156 5.75 -0.546875 C 5.238281 -0.179688 4.664062 0 4.03125 0 L -2.203125 0 L 19.1875 -44.234375 L 27.296875 -44.234375 Z M 13.4375 -16.640625 L 26.3125 -16.640625 L 23.3125 -31.78125 C 23.144531 -32.519531 22.976562 -33.296875 22.8125 -34.109375 C 22.65625 -34.921875 22.503906 -35.835938 22.359375 -36.859375 C 21.972656 -35.835938 21.59375 -34.894531 21.21875 -34.03125 C 20.84375 -33.164062 20.488281 -32.40625 20.15625 -31.75 Z M 13.4375 -16.640625 "/></g></g></g><g fill="#ffffff" fill-opacity="1"><g transform="translate(376.790027, 79.894906)"><g><path d="M 36.46875 -44.234375 L 35.640625 -37.71875 L 23.53125 -37.71875 L 18.875 0 L 10.984375 0 L 15.609375 -37.71875 L 3.453125 -37.71875 L 4.25 -44.234375 Z M 36.46875 -44.234375 "/></g></g></g><g fill="#ffffff" fill-opacity="1"><g transform="translate(412.948519, 79.894906)"><g/></g></g><g fill="#ffffff" fill-opacity="1"><g transform="translate(427.387761, 79.894906)"><g><path d="M 22.796875 -17.21875 L 20.65625 0 L 12.703125 0 L 14.84375 -17.25 L 3.328125 -44.234375 L 10.40625 -44.234375 C 11.09375 -44.234375 11.617188 -44.066406 11.984375 -43.734375 C 12.359375 -43.398438 12.644531 -42.96875 12.84375 -42.4375 L 18.578125 -27.140625 C 18.859375 -26.398438 19.082031 -25.675781 19.25 -24.96875 C 19.425781 -24.269531 19.578125 -23.585938 19.703125 -22.921875 C 20.023438 -23.585938 20.375 -24.265625 20.75 -24.953125 C 21.132812 -25.648438 21.5625 -26.378906 22.03125 -27.140625 L 31.546875 -42.4375 C 31.828125 -42.90625 32.195312 -43.320312 32.65625 -43.6875 C 33.113281 -44.050781 33.679688 -44.234375 34.359375 -44.234375 L 40.9375 -44.234375 Z M 22.796875 -17.21875 "/></g></g></g><g fill="#ffffff" fill-opacity="1"><g transform="translate(467.094767, 79.894906)"><g><path d="M 44.234375 -25.09375 C 44.234375 -22.644531 43.960938 -20.3125 43.421875 -18.09375 C 42.878906 -15.882812 42.101562 -13.832031 41.09375 -11.9375 C 40.09375 -10.039062 38.878906 -8.328125 37.453125 -6.796875 C 36.035156 -5.265625 34.445312 -3.957031 32.6875 -2.875 C 30.925781 -1.789062 29.015625 -0.957031 26.953125 -0.375 C 24.890625 0.195312 22.726562 0.484375 20.46875 0.484375 C 17.65625 0.484375 15.125 -0.015625 12.875 -1.015625 C 10.632812 -2.015625 8.722656 -3.390625 7.140625 -5.140625 C 5.554688 -6.890625 4.347656 -8.957031 3.515625 -11.34375 C 2.679688 -13.738281 2.265625 -16.332031 2.265625 -19.125 C 2.265625 -21.570312 2.535156 -23.898438 3.078125 -26.109375 C 3.617188 -28.328125 4.394531 -30.382812 5.40625 -32.28125 C 6.414062 -34.175781 7.628906 -35.882812 9.046875 -37.40625 C 10.460938 -38.9375 12.050781 -40.25 13.8125 -41.34375 C 15.570312 -42.4375 17.484375 -43.273438 19.546875 -43.859375 C 21.609375 -44.441406 23.78125 -44.734375 26.0625 -44.734375 C 28.875 -44.734375 31.398438 -44.234375 33.640625 -43.234375 C 35.890625 -42.234375 37.800781 -40.851562 39.375 -39.09375 C 40.945312 -37.34375 42.148438 -35.269531 42.984375 -32.875 C 43.816406 -30.476562 44.234375 -27.882812 44.234375 -25.09375 Z M 36.09375 -24.90625 C 36.09375 -26.90625 35.84375 -28.71875 35.34375 -30.34375 C 34.84375 -31.976562 34.117188 -33.375 33.171875 -34.53125 C 32.222656 -35.695312 31.066406 -36.597656 29.703125 -37.234375 C 28.335938 -37.867188 26.800781 -38.1875 25.09375 -38.1875 C 22.882812 -38.1875 20.878906 -37.734375 19.078125 -36.828125 C 17.273438 -35.929688 15.726562 -34.65625 14.4375 -33 C 13.15625 -31.351562 12.160156 -29.367188 11.453125 -27.046875 C 10.753906 -24.722656 10.40625 -22.140625 10.40625 -19.296875 C 10.40625 -17.304688 10.648438 -15.492188 11.140625 -13.859375 C 11.628906 -12.222656 12.34375 -10.828125 13.28125 -9.671875 C 14.21875 -8.523438 15.363281 -7.640625 16.71875 -7.015625 C 18.070312 -6.398438 19.617188 -6.09375 21.359375 -6.09375 C 23.578125 -6.09375 25.59375 -6.539062 27.40625 -7.4375 C 29.226562 -8.332031 30.78125 -9.59375 32.0625 -11.21875 C 33.34375 -12.851562 34.332031 -14.828125 35.03125 -17.140625 C 35.738281 -19.460938 36.09375 -22.050781 36.09375 -24.90625 Z M 36.09375 -24.90625 "/></g></g></g><g fill="#ffffff" fill-opacity="1"><g transform="translate(514.510583, 79.894906)"><g><path d="M 19.421875 -6.359375 C 20.847656 -6.359375 22.15625 -6.628906 23.34375 -7.171875 C 24.539062 -7.710938 25.585938 -8.476562 26.484375 -9.46875 C 27.390625 -10.457031 28.128906 -11.644531 28.703125 -13.03125 C 29.285156 -14.414062 29.679688 -15.957031 29.890625 -17.65625 L 33.15625 -44.234375 L 41.09375 -44.234375 L 37.84375 -17.65625 C 37.519531 -15.039062 36.828125 -12.617188 35.765625 -10.390625 C 34.703125 -8.171875 33.335938 -6.253906 31.671875 -4.640625 C 30.015625 -3.035156 28.078125 -1.78125 25.859375 -0.875 C 23.648438 0.03125 21.226562 0.484375 18.59375 0.484375 C 16.207031 0.484375 14.085938 0.113281 12.234375 -0.625 C 10.378906 -1.375 8.8125 -2.421875 7.53125 -3.765625 C 6.257812 -5.109375 5.289062 -6.710938 4.625 -8.578125 C 3.96875 -10.441406 3.640625 -12.5 3.640625 -14.75 C 3.640625 -15.664062 3.703125 -16.632812 3.828125 -17.65625 L 7.03125 -44.234375 L 14.984375 -44.234375 L 11.71875 -17.6875 C 11.675781 -17.300781 11.644531 -16.921875 11.625 -16.546875 C 11.601562 -16.179688 11.59375 -15.828125 11.59375 -15.484375 C 11.59375 -14.097656 11.757812 -12.84375 12.09375 -11.71875 C 12.4375 -10.59375 12.9375 -9.628906 13.59375 -8.828125 C 14.257812 -8.035156 15.082031 -7.425781 16.0625 -7 C 17.039062 -6.570312 18.160156 -6.359375 19.421875 -6.359375 Z M 19.421875 -6.359375 "/></g></g></g><g fill="#ffffff" fill-opacity="1"><g transform="translate(558.071994, 79.894906)"><g><path d="M 13.484375 -44.203125 L 12.390625 -35.390625 L 11.171875 -30.59375 C 10.941406 -29.738281 10.617188 -29.078125 10.203125 -28.609375 C 9.785156 -28.140625 9.148438 -27.90625 8.296875 -27.90625 C 7.578125 -27.90625 7.039062 -28.140625 6.6875 -28.609375 C 6.332031 -29.078125 6.125 -29.738281 6.0625 -30.59375 L 6.0625 -35.390625 L 7.15625 -44.203125 Z M 13.484375 -44.203125 "/></g></g></g><g fill="#ffffff" fill-opacity="1"><g transform="translate(574.193731, 79.894906)"><g><path d="M 10.859375 -6.578125 L 26.953125 -6.578125 L 26.1875 0 L 2.140625 0 L 7.59375 -44.234375 L 15.515625 -44.234375 Z M 10.859375 -6.578125 "/></g></g></g><g fill="#ffffff" fill-opacity="1"><g transform="translate(605.947194, 79.894906)"><g><path d="M 10.859375 -6.578125 L 26.953125 -6.578125 L 26.1875 0 L 2.140625 0 L 7.59375 -44.234375 L 15.515625 -44.234375 Z M 10.859375 -6.578125 "/></g></g></g><g fill="#ffffff" fill-opacity="1"><g transform="translate(637.700658, 79.894906)"><g/></g></g><g fill="#ffffff" fill-opacity="1"><g transform="translate(652.139901, 79.894906)"><g><path d="M 33.375 -44.234375 L 32.578125 -37.90625 L 14.78125 -37.90625 L 13.25 -25.328125 L 27.234375 -25.328125 L 26.46875 -19.25 L 12.484375 -19.25 L 10.890625 -6.328125 L 28.765625 -6.328125 L 27.96875 0 L 2.140625 0 L 7.59375 -44.234375 Z M 33.375 -44.234375 "/></g></g></g><g fill="#ffffff" fill-opacity="1"><g transform="translate(686.921835, 79.894906)"><g><path d="M 37.84375 0 L 31.6875 0 C 31 0 30.453125 -0.160156 30.046875 -0.484375 C 29.640625 -0.816406 29.382812 -1.257812 29.28125 -1.8125 L 27.4375 -11.046875 L 10.953125 -11.046875 L 6.859375 -1.8125 C 6.628906 -1.332031 6.257812 -0.910156 5.75 -0.546875 C 5.238281 -0.179688 4.664062 0 4.03125 0 L -2.203125 0 L 19.1875 -44.234375 L 27.296875 -44.234375 Z M 13.4375 -16.640625 L 26.3125 -16.640625 L 23.3125 -31.78125 C 23.144531 -32.519531 22.976562 -33.296875 22.8125 -34.109375 C 22.65625 -34.921875 22.503906 -35.835938 22.359375 -36.859375 C 21.972656 -35.835938 21.59375 -34.894531 21.21875 -34.03125 C 20.84375 -33.164062 20.488281 -32.40625 20.15625 -31.75 Z M 13.4375 -16.640625 "/></g></g></g><g fill="#ffffff" fill-opacity="1"><g transform="translate(728.800797, 79.894906)"><g><path d="M 12.390625 -17.4375 L 10.25 0 L 2.359375 0 L 7.765625 -44.234375 L 20.34375 -44.234375 C 22.894531 -44.234375 25.078125 -43.960938 26.890625 -43.421875 C 28.703125 -42.878906 30.191406 -42.125 31.359375 -41.15625 C 32.523438 -40.1875 33.378906 -39.03125 33.921875 -37.6875 C 34.472656 -36.34375 34.75 -34.863281 34.75 -33.25 C 34.75 -31.539062 34.507812 -29.9375 34.03125 -28.4375 C 33.550781 -26.9375 32.863281 -25.570312 31.96875 -24.34375 C 31.070312 -23.125 29.96875 -22.054688 28.65625 -21.140625 C 27.351562 -20.222656 25.878906 -19.507812 24.234375 -19 C 24.703125 -18.71875 25.128906 -18.367188 25.515625 -17.953125 C 25.898438 -17.546875 26.238281 -17.054688 26.53125 -16.484375 L 34.421875 0 L 27.296875 0 C 26.617188 0 26.050781 -0.132812 25.59375 -0.40625 C 25.132812 -0.6875 24.789062 -1.082031 24.5625 -1.59375 L 18.078125 -15.9375 C 17.835938 -16.46875 17.535156 -16.847656 17.171875 -17.078125 C 16.816406 -17.316406 16.265625 -17.4375 15.515625 -17.4375 Z M 14.953125 -38.125 L 13.09375 -23.09375 L 17.6875 -23.09375 C 19.269531 -23.09375 20.640625 -23.320312 21.796875 -23.78125 C 22.953125 -24.238281 23.898438 -24.867188 24.640625 -25.671875 C 25.390625 -26.484375 25.945312 -27.429688 26.3125 -28.515625 C 26.675781 -29.597656 26.859375 -30.757812 26.859375 -32 C 26.859375 -33.914062 26.265625 -35.414062 25.078125 -36.5 C 23.898438 -37.582031 22.078125 -38.125 19.609375 -38.125 Z M 14.953125 -38.125 "/></g></g></g><g fill="#ffffff" fill-opacity="1"><g transform="translate(768.416063, 79.894906)"><g><path d="M 11.75 -44.234375 C 12.09375 -44.234375 12.378906 -44.21875 12.609375 -44.1875 C 12.847656 -44.15625 13.054688 -44.09375 13.234375 -44 C 13.421875 -43.914062 13.585938 -43.789062 13.734375 -43.625 C 13.878906 -43.457031 14.035156 -43.234375 14.203125 -42.953125 L 31.421875 -12.75 C 31.460938 -13.34375 31.507812 -13.921875 31.5625 -14.484375 C 31.613281 -15.046875 31.664062 -15.570312 31.71875 -16.0625 L 35.1875 -44.234375 L 42.1875 -44.234375 L 36.71875 0 L 32.640625 0 C 32.023438 0 31.503906 -0.09375 31.078125 -0.28125 C 30.648438 -0.476562 30.296875 -0.84375 30.015625 -1.375 L 12.875 -31.578125 C 12.832031 -31.085938 12.789062 -30.613281 12.75 -30.15625 C 12.71875 -29.695312 12.679688 -29.257812 12.640625 -28.84375 L 9.140625 0 L 2.140625 0 L 7.59375 -44.234375 Z M 11.75 -44.234375 "/></g></g></g></svg>